<svg width="20" height="14" viewBox="0 0 20 14" xmlns="http://www.w3.org/2000/svg"><title>ico_quote</title><g fill="#747F87" fill-rule="nonzero"><path d="M.907 5.333C1.814 1.778 3.628 0 4.535 0h2.721S3.628 2.667 3.628 6.222l1.495-.244A3.4 3.4 0 0 1 9.07 9.333a4 4 0 0 1-4 4H4.99A4.409 4.409 0 0 1 .58 8.987C.56 7.49.668 6.271.907 5.333zM10.884 5.333C11.791 1.778 13.605 0 14.512 0h2.722s-3.629 2.667-3.629 6.222l1.495-.244a3.4 3.4 0 0 1 3.948 3.355 4 4 0 0 1-4 4h-.082a4.409 4.409 0 0 1-4.408-4.346c-.022-1.498.087-2.716.326-3.654z"/></g></svg>