<svg fill="#6A6A6A" xmlns="http://www.w3.org/2000/svg" viewBox="0 0 161.492 162.732"><path d="M81.166 10.691c-39.138 0-70.865 31.728-70.865 70.866s31.727 70.865 70.865 70.865 70.867-31.727 70.867-70.865-31.729-70.866-70.867-70.866zm-12.491 91.628c0 5.192-1.966 9.67-5.897 13.433-3.932 3.763-8.608 5.645-14.026 5.645-5.607 0-10.384-1.9-14.336-5.701-3.952-3.8-5.925-8.41-5.925-13.828 0-5.38 1.973-9.991 5.925-13.827 3.952-3.841 8.672-5.759 14.167-5.759 3.987 0 7.722 1.128 11.204 3.387 3.48 2.258 5.802 5.062 6.971 8.409H58.46c-2.333-3.535-5.683-5.307-10.046-5.307-3.612 0-6.671 1.271-9.172 3.811-2.504 2.54-3.755 5.655-3.755 9.342 0 3.688 1.271 6.773 3.811 9.256 2.539 2.484 5.692 3.727 9.455 3.727 2.407 0 4.601-.61 6.574-1.834 1.977-1.224 3.491-2.906 4.545-5.053H44.124v-6.489h24.552v.788zm12.134 18.344h-6.997V83.016h6.997v37.647zm26.076-31.157H94.693v9.257h11.629v6.491H94.693v15.409h-6.998V83.016h19.189v6.49zM82.907 20.142c33.138.924 59.719 28.057 59.719 61.415 0 .151-.01.301-.014.453-31.41-4.746-56.045-30.112-59.705-61.868z"/></svg>