<svg width="15" height="14" viewBox="0 0 15 14" xmlns="http://www.w3.org/2000/svg"><title>Group 3</title><g fill="#747F87" fill-rule="evenodd"><path d="M2 12.018l1.444-1.632c.998.909 2.335 1.528 3.61 1.528 1.57 0 2.42-.681 2.42-1.734 0-1.115-.892-1.466-2.145-1.982l-1.91-.806c-1.36-.557-2.803-1.61-2.803-3.593C2.616 1.652 4.569 0 7.286 0c1.614 0 3.185.66 4.268 1.714l-1.253 1.528c-.891-.723-1.825-1.156-3.014-1.156-1.317 0-2.187.598-2.187 1.59 0 1.053 1.061 1.445 2.208 1.9l1.89.763C10.831 7.021 12 8.032 12 9.994 12 12.183 10.132 14 7.01 14c-1.868 0-3.694-.723-5.01-1.982z"/><path d="M0 7h15v2H0z"/></g></svg>