<svg width="11" height="14" viewBox="0 0 11 14" xmlns="http://www.w3.org/2000/svg"><title>ico_bold</title><path d="M0 14V0h4.772c1.699 0 3.074.311 4.044.933.97.623 1.456 1.634 1.456 2.878 0 .622-.162 1.245-.485 1.711-.324.545-.89.856-1.537 1.167.89.155 1.618.544 2.022 1.167.485.622.728 1.322.728 2.1 0 1.322-.485 2.333-1.375 3.033-.97.7-2.346 1.011-3.963 1.011H0zm2.912-8.167h1.94c.81 0 1.376-.155 1.78-.466.486-.234.647-.7.647-1.323 0-.622-.242-1.088-.647-1.4-.404-.31-1.051-.466-1.86-.466h-1.86v3.655zm0 1.945v4.044h2.75c.809 0 1.375-.155 1.78-.466.404-.312.646-.778.646-1.4 0-.7-.162-1.167-.566-1.556-.404-.389-.97-.544-1.78-.544h-2.83v-.078z" fill="#747F87" fill-rule="nonzero"/></svg>