<svg width="16" height="17" viewBox="0 0 16 17" xmlns="http://www.w3.org/2000/svg"><title>ico_link</title><g fill="#747F87" fill-rule="nonzero"><path d="M13.829 9.706a1.1 1.1 0 0 1-1.61-1.5c1.253-1.344 1.227-3.773-.133-5.042-1.426-1.33-3.683-1.237-5.039.218-1.356 1.455-1.292 3.712.134 5.041a1.1 1.1 0 1 1-1.5 1.61C3.36 7.87 3.257 4.22 5.438 1.881c2.18-2.34 5.829-2.49 8.148-.327 2.267 2.114 2.308 5.936.243 8.15z"/><path d="M9.465 6.086A1.1 1.1 0 0 0 8.11 7.82c1.448 1.13 1.802 3.534.657 5-1.201 1.537-3.444 1.798-5.011.573-1.567-1.224-1.857-3.464-.656-5a1.1 1.1 0 0 0-1.734-1.355c-1.952 2.5-1.484 6.12 1.035 8.089 2.52 1.969 6.147 1.547 8.1-.952 1.907-2.443 1.35-6.224-1.036-8.089z"/></g></svg>