<svg width="18" height="14" viewBox="0 0 18 14" xmlns="http://www.w3.org/2000/svg"><title>ico_hide</title><path d="M15.375 12.245l-1.06 1.018-2.06-1.978c-.603.202-1.235.351-1.886.441l-.007.002h-.009l-.02.003-.04.005h-.007l-.002.002c-.023.001-.045.004-.068.007l-.007.002-.012.001-.022.003-.027.003-.015.002h-.006l-.062.007-.009.001-.018.002-.021.001-.016.002-.02.003-.014.001h-.004l-.024.003-.034.003-.038.003-.01.002h-.005c-.479.04-.96.05-1.438.026h-.002l-.003-.001-.04-.002-.035-.001-.016-.002H8.31l-.018-.001-.015-.002a.7.7 0 0 1-.055-.003h-.006l-.015-.001-.026-.002-.024-.003H8.133c-.021-.003-.043-.004-.064-.005h-.007l-.008-.002c-.023-.001-.046-.003-.068-.006l-.045-.004h-.002l-.02-.002-.024-.003h-.003l-.037-.003-.006-.001a9.964 9.964 0 0 1-2.653-.649l-.003-.001-.102-.041-.006-.002-.005-.003a1.036 1.036 0 0 1-.06-.025H5.02a9.483 9.483 0 0 1-3.31-2.316l-.008-.01-.003-.002-.013-.015-.02-.02-.012-.014-.01-.012-.016-.016-.01-.013-.01-.01-.022-.025-.014-.017-.005-.004-.051-.059a2.084 2.084 0 0 1-.05-.059l-.006-.006-.01-.012-.018-.02-.016-.02-.011-.013-.006-.007-.007-.01-.035-.042-.006-.007-.005-.006-.035-.044-.006-.007-.006-.01-.012-.014-.016-.02-.013-.015-.013-.017-.008-.01-.006-.007-.022-.03-.016-.02-.016-.021-.024-.031-.003-.004-.009-.012-.015-.02-.012-.014L1.104 8l-.015-.021-.009-.013-.005-.005-.014-.02-.021-.03-.026-.035L1 7.859 1 7.856l-.01-.013-.017-.024-.009-.013-.007-.01-.015-.022-.011-.015-.003-.004-.01-.017-.026-.035-.025-.038-.011-.015-.001-.003-.01-.013-.016-.025-.009-.012-.007-.012-.016-.022-.009-.015-.003-.004-.013-.02L.75 7.49.73 7.46l-.014-.024-.003-.004-.008-.012-.013-.022-.011-.016-.009-.015-.012-.02-.008-.012-.004-.006-.02-.031-.013-.022-.01-.018-.023-.038-.004-.008-.006-.01-.011-.018-.012-.019-.01-.02-.011-.017-.005-.009-.006-.01-.027-.046-.004-.008-.002-.003-.03-.053-.006-.01-.004-.008-.006-.013-.014-.025-.013-.024-.007-.013-.005-.008-.036-.066-.03-.057A8.864 8.864 0 0 1 0 6.06a8.988 8.988 0 0 1 1.038-1.85l.004-.006.006-.008.017-.023.006-.007c.012-.018.026-.035.038-.051l.044-.06.004-.004.001-.001a9.272 9.272 0 0 1 1.743-1.747L1.565 1.018 2.625 0l12.75 12.245zM4.918 4.24l-.049.104a5.02 5.02 0 0 0-.188.5l-.013.044-.014.049-.004.016-.01.035A4.2 4.2 0 0 0 4.5 6.01v.113l.002.049.001.05.003.05v.016l.003.046.003.047.005.044c.02.252.065.501.133.746l.015.05.009.031.012.04.013.045.017.048.005.016.016.046.02.054.014.038.014.037c.468 1.194 1.486 2.149 2.74 2.569l.04.012.05.016.047.015.05.014.048.014.046.011.045.012c.31.08.63.125.951.139l.051.001.048.002.04.001h.134l.009-.001h.042a4.772 4.772 0 0 0 1.77-.401l-1.17-1.123A3.176 3.176 0 0 1 8.071 8.8l-.004-.002a2.978 2.978 0 0 1-1.736-1.422l-.001-.001v-.002l-.002-.003-.013-.023-.002-.006h-.001a.33.33 0 0 0-.017-.033l-.01-.022-.003-.006-.002-.004-.003-.004-.003-.008-.007-.014-.002-.005-.001-.003-.012-.025-.002-.004-.003-.008-.004-.007-.003-.009-.005-.009-.001-.004v-.002l-.01-.022-.002-.004-.005-.012-.002-.006-.002-.004-.005-.01-.003-.008v-.001l-.003-.003-.007-.021-.008-.018v-.003l-.001-.001-.005-.012-.003-.01v-.002a.91.91 0 0 1-.025-.067l-.022-.068V6.9L6.128 6.9l-.02-.065V6.83l-.001-.003a.865.865 0 0 1-.016-.06l-.002-.007-.002-.006-.003-.01-.001-.006v-.001l-.006-.022-.002-.005-.001-.009-.003-.013-.002-.007-.001-.006-.002-.005-.006-.03-.001-.004-.004-.019-.002-.009v-.004l-.002-.003c-.001-.01-.002-.022-.005-.032l-.006-.036a2.73 2.73 0 0 1 .048-1.17L4.918 4.24zM6.675.547a10.35 10.35 0 0 1 3.468-.18l.075.009.06.007.088.012.038.004c.04.006.082.012.123.02h.003c.444.067.879.163 1.3.285l.029.008.037.012.066.019.06.019.101.03.053.019c1.854.605 3.45 1.72 4.591 3.16l.027.034.052.067.052.07.052.067.05.07.05.068.029.042c.367.521.677 1.081.921 1.67a8.621 8.621 0 0 1-.98 1.754l-.004.008-.004.006-.012.017-.01.01-.035.052-.041.053-.006.008-.003.004a9.308 9.308 0 0 1-1.9 1.88L13.04 7.966l.033-.065.072-.154c.048-.112.048-.112.091-.224.069-.193.129-.39.172-.588l.008-.037.002-.01.006-.03.001-.007.007-.039.006-.038.002-.004.006-.037v-.003c.014-.081.024-.162.033-.243v-.002l.003-.041.005-.04V6.4l.002-.035v-.009l.002-.03.002-.008.001-.037.002-.013v-.023l.001-.017V6.21l.002-.02v-.033l.001-.028v-.125l-.002-.055-.001-.053V5.89l-.003-.044v-.01l-.003-.052-.003-.049-.002-.015-.003-.036-.001-.015-.006-.049-.005-.048-.001-.015-.005-.036-.002-.016-.006-.044-.004-.02-.002-.026-.005-.026-.003-.018-.02-.107V5.26a4.152 4.152 0 0 0-.17-.614l-.002-.008-.012-.03-.005-.014-.01-.028-.009-.024-.006-.014-.008-.018-.01-.027-.008-.017-.011-.03-.007-.014-.019-.045-.02-.042-.002-.008-.019-.038-.007-.015-.014-.03-.013-.027-.002-.002a4.483 4.483 0 0 0-2.586-2.237l-.033-.01-.016-.006-.04-.013-.01-.002-.046-.015-.05-.014-.019-.005-.028-.009-.026-.007-.021-.006-.03-.007-.015-.003a4.649 4.649 0 0 0-.999-.14l-.009-.002h-.052l-.035-.001h-.135l-.009.001h-.043l-.037.002H8.82l-.028.001H8.78l-.027.002-.01.001c-.361.02-.718.08-1.063.183l-.009.002-.029.008-.009.003-.034.01a4.798 4.798 0 0 0-.546.213l-.036.016L5.625.844C5.964.728 6.314.63 6.67.548h.002l.003-.001zm5.301 5.147a2.8 2.8 0 0 1-.092 1.161L8.172 3.292a3.134 3.134 0 0 1 1.962.101l.033.014.045.019.046.02c.89.395 1.543 1.196 1.703 2.155l.01.057.005.037z" fill="#747F87" fill-rule="evenodd"/></svg>